<svg>
    <path fill="#3178c6" style="fill: var(--color1, #3178c6)" d="M3.125 0h25.75c1.726 0 3.125 1.399 3.125 3.125v25.75c0 1.726-1.399 3.125-3.125 3.125h-25.75c-1.726 0-3.125-1.399-3.125-3.125v-25.75c0-1.726 1.399-3.125 3.125-3.125z"></path>
    <path fill="#fff" style="fill: var(--color2, #fff)" d="M19.809 25.464v3.129c0.509 0.261 1.11 0.456 1.805 0.587s1.426 0.196 2.196 0.196c0.75 0 1.462-0.072 2.137-0.215s1.267-0.38 1.775-0.709c0.509-0.329 0.911-0.759 1.208-1.291s0.445-1.188 0.445-1.97c0-0.567-0.085-1.064-0.254-1.491s-0.414-0.807-0.734-1.139c-0.32-0.332-0.703-0.631-1.149-0.895s-0.95-0.513-1.511-0.748c-0.411-0.169-0.779-0.334-1.105-0.494s-0.603-0.323-0.831-0.489c-0.228-0.166-0.404-0.342-0.528-0.528s-0.186-0.396-0.186-0.631c0-0.215 0.055-0.409 0.166-0.582s0.267-0.321 0.47-0.445c0.202-0.124 0.45-0.22 0.743-0.288s0.619-0.103 0.978-0.103c0.261 0 0.536 0.020 0.826 0.059s0.582 0.099 0.875 0.181c0.293 0.081 0.579 0.184 0.856 0.308s0.533 0.267 0.768 0.43v-2.924c-0.476-0.182-0.996-0.318-1.56-0.406s-1.211-0.132-1.942-0.132c-0.743 0-1.448 0.080-2.113 0.24s-1.25 0.409-1.756 0.748c-0.505 0.339-0.905 0.771-1.198 1.296s-0.44 1.152-0.44 1.882c0 0.932 0.269 1.727 0.807 2.386s1.355 1.216 2.45 1.672c0.43 0.176 0.831 0.349 1.203 0.518s0.693 0.346 0.963 0.528c0.271 0.183 0.484 0.381 0.641 0.596s0.235 0.459 0.235 0.733c0 0.202-0.049 0.389-0.147 0.562s-0.246 0.323-0.445 0.45-0.447 0.227-0.743 0.298c-0.297 0.072-0.644 0.108-1.042 0.108-0.678 0-1.35-0.119-2.015-0.357s-1.281-0.595-1.849-1.071zM14.549 17.755h4.014v-2.568h-11.188v2.568h3.994v11.432h3.18z"></path>
</svg>